<svg xmlns="http://www.w3.org/2000/svg" width="280.883" height="116.923"><g style="fill:#fff"><path d="M228.417 466.447h-29.763l3.384-51.73-19.327 51.73h-27.636l43.85-116.923h29.407l-3.395 52.438 19.693-52.438h27.637l-43.85 116.923m3.588 0 43.85-116.923h27.637l-43.85 116.923h-27.637M339.452 458.652l-1.77-60.941 41.784-45.877zm89.08-89.641 7.426-19.487h-84.325l-28.958 35.077 13.367-35.077h-27.99l-43.495 116.923h27.636l18.569-48.896 1.272 48.896 84.799-.184 8.072-22.492h-32.242l10.593-28.345h26.573l8.175-21.79h-26.573l9.11-24.625h27.99" style="fill:#fff;fill-opacity:1;fill-rule:nonzero;stroke:none;stroke-width:.826665" transform="translate(-155.075 -349.524)"/></g></svg>